{
  "accessors": [
    {
      "bufferView": 2,
      "componentType": 5126,
      "count": 65532,
      "max": [
        2.8531692028045654,
        -7.6629352569580078,
        2.8174149990081787
      ],
      "min": [
        -2.7124359607696533,
        -20.462060928344727,
        -3.1711626052856445
      ],
      "type": "VEC3"
    },
    {
      "bufferView": 2,
      "byteOffset": 786384,
      "componentType": 5126,
      "count": 65532,
      "max": [
        0.99998557567596436,
        0.99995434284210205,
        0.9996839165687561
      ],
      "min": [
        -0.99999898672103882,
        -0.99999988079071045,
        -0.99999868869781494
      ],
      "type": "VEC3"
    },
    {
      "bufferView": 1,
      "componentType": 5126,
      "count": 65532,
      "max": [
        0.99977701902389526,
        0.97692900896072388
      ],
      "min": [
        0.00032399999327026308,
        0.00039699999615550041
      ],
      "type": "VEC2"
    },
    {
      "bufferView": 0,
      "componentType": 5125,
      "count": 320163,
      "max": [
        65531
      ],
      "min": [
        0
      ],
      "type": "SCALAR"
    },
    {
      "bufferView": 2,
      "byteOffset": 1572768,
      "componentType": 5126,
      "count": 65532,
      "max": [
        3.2544245719909668,
        -7.6757402420043945,
        2.7173404693603516
      ],
      "min": [
        -2.7140305042266846,
        -22.441045761108398,
        -2.9831118583679199
      ],
      "type": "VEC3"
    },
    {
      "bufferView": 2,
      "byteOffset": 2359152,
      "componentType": 5126,
      "count": 65532,
      "max": [
        0.99999386072158813,
        0.99997478723526001,
        0.99996733665466309
      ],
      "min": [
        -0.99999922513961792,
        -0.99999988079071045,
        -0.99997049570083618
      ],
      "type": "VEC3"
    },
    {
      "bufferView": 1,
      "byteOffset": 524256,
      "componentType": 5126,
      "count": 65532,
      "max": [
        0.9997820258140564,
        0.97692900896072388
      ],
      "min": [
        0.00012199999764561653,
        0.0023819999769330025
      ],
      "type": "VEC2"
    },
    {
      "bufferView": 0,
      "byteOffset": 1280652,
      "componentType": 5125,
      "count": 299757,
      "max": [
        65531
      ],
      "min": [
        0
      ],
      "type": "SCALAR"
    },
    {
      "bufferView": 2,
      "byteOffset": 3145536,
      "componentType": 5126,
      "count": 65532,
      "max": [
        3.2538583278656006,
        -7.6679730415344238,
        2.7322921752929688
      ],
      "min": [
        -2.573082447052002,
        -22.686767578125,
        -2.410029411315918
      ],
      "type": "VEC3"
    },
    {
      "bufferView": 2,
      "byteOffset": 3931920,
      "componentType": 5126,
      "count": 65532,
      "max": [
        0.99999904632568359,
        0.99999678134918213,
        0.9999997615814209
      ],
      "min": [
        -0.99997812509536743,
        -0.99999719858169556,
        -0.99993032217025757
      ],
      "type": "VEC3"
    },
    {
      "bufferView": 1,
      "byteOffset": 1048512,
      "componentType": 5126,
      "count": 65532,
      "max": [
        0.99935400485992432,
        0.97692900896072388
      ],
      "min": [
        0.00012199999764561653,
        0.0002119999990100041
      ],
      "type": "VEC2"
    },
    {
      "bufferView": 0,
      "byteOffset": 2479680,
      "componentType": 5125,
      "count": 290667,
      "max": [
        65531
      ],
      "min": [
        0
      ],
      "type": "SCALAR"
    },
    {
      "bufferView": 2,
      "byteOffset": 4718304,
      "componentType": 5126,
      "count": 65532,
      "max": [
        2.9454150199890137,
        -7.6624784469604492,
        2.7993700504302979
      ],
      "min": [
        -2.1565952301025391,
        -22.097387313842773,
        -2.5666344165802002
      ],
      "type": "VEC3"
    },
    {
      "bufferView": 2,
      "byteOffset": 5504688,
      "componentType": 5126,
      "count": 65532,
      "max": [
        0.99992543458938599,
        0.99995636940002441,
        0.99999940395355225
      ],
      "min": [
        -0.999988853931427,
        -0.99993479251861572,
        -0.99999719858169556
      ],
      "type": "VEC3"
    },
    {
      "bufferView": 1,
      "byteOffset": 1572768,
      "componentType": 5126,
      "count": 65532,
      "max": [
        0.9997590184211731,
        0.97717297077178955
      ],
      "min": [
        0.00012199999764561653,
        0.080776996910572052
      ],
      "type": "VEC2"
    },
    {
      "bufferView": 0,
      "byteOffset": 3642348,
      "componentType": 5125,
      "count": 296754,
      "max": [
        65531
      ],
      "min": [
        0
      ],
      "type": "SCALAR"
    },
    {
      "bufferView": 2,
      "byteOffset": 6291072,
      "componentType": 5126,
      "count": 60704,
      "max": [
        3.2490792274475098,
        -7.6624736785888672,
        2.8244073390960693
      ],
      "min": [
        -2.7158200740814209,
        -22.964305877685547,
        -3.1711626052856445
      ],
      "type": "VEC3"
    },
    {
      "bufferView": 2,
      "byteOffset": 7019520,
      "componentType": 5126,
      "count": 60704,
      "max": [
        0.99999761581420898,
        0.99999630451202393,
        0.99999988079071045
      ],
      "min": [
        -0.99997812509536743,
        -1,
        -0.99998968839645386
      ],
      "type": "VEC3"
    },
    {
      "bufferView": 1,
      "byteOffset": 2097024,
      "componentType": 5126,
      "count": 60704,
      "max": [
        0.99940699338912964,
        0.97692900896072388
      ],
      "min": [
        0.00012199999764561653,
        0.0002119999990100041
      ],
      "type": "VEC2"
    },
    {
      "bufferView": 0,
      "byteOffset": 4829364,
      "componentType": 5125,
      "count": 259023,
      "max": [
        60703
      ],
      "min": [
        0
      ],
      "type": "SCALAR"
    },
    {
      "bufferView": 2,
      "byteOffset": 7747968,
      "componentType": 5126,
      "count": 13626,
      "max": [
        2.7438473701477051,
        -7.6624736785888672,
        2.7171142101287842
      ],
      "min": [
        -2.7155227661132812,
        -7.6762070655822754,
        -3.1606860160827637
      ],
      "type": "VEC3"
    },
    {
      "bufferView": 2,
      "byteOffset": 7911480,
      "componentType": 5126,
      "count": 13626,
      "max": [
        0.99982267618179321,
        0.9999968409538269,
        0.99999386072158813
      ],
      "min": [
        -0.99993962049484253,
        -0.54109638929367065,
        -0.999991774559021
      ],
      "type": "VEC3"
    },
    {
      "bufferView": 1,
      "byteOffset": 2582656,
      "componentType": 5126,
      "count": 13626,
      "max": [
        0,
        0
      ],
      "min": [
        0,
        0
      ],
      "type": "VEC2"
    },
    {
      "bufferView": 0,
      "byteOffset": 5865456,
      "componentType": 5125,
      "count": 78729,
      "max": [
        13625
      ],
      "min": [
        0
      ],
      "type": "SCALAR"
    },
    {
      "bufferView": 2,
      "byteOffset": 8074992,
      "componentType": 5126,
      "count": 1174,
      "max": [
        0.48045271635055542,
        -12.272379875183105,
        1.1317175626754761
      ],
      "min": [
        0.18332965672016144,
        -13.191447257995605,
        -1.4679404497146606
      ],
      "type": "VEC3"
    },
    {
      "bufferView": 2,
      "byteOffset": 8089080,
      "componentType": 5126,
      "count": 1174,
      "max": [
        0.99778479337692261,
        0.49958530068397522,
        0.92877024412155151
      ],
      "min": [
        -0.99398642778396606,
        -0.37514251470565796,
        -0.97699958086013794
      ],
      "type": "VEC3"
    },
    {
      "bufferView": 1,
      "byteOffset": 2691664,
      "componentType": 5126,
      "count": 1174,
      "max": [
        0.06298828125,
        0.071858391165733337
      ],
      "min": [
        0,
        0
      ],
      "type": "VEC2"
    },
    {
      "bufferView": 0,
      "byteOffset": 6180372,
      "componentType": 5125,
      "count": 5871,
      "max": [
        1173
      ],
      "min": [
        0
      ],
      "type": "SCALAR"
    }
  ],
  "asset": {
    "extras": {
      "author": "noe-3d.at (https://sketchfab.com/www.noe-3d.at)",
      "license": "CC0-1.0 (http://creativecommons.org/publicdomain/zero/1.0/)",
      "source": "https://sketchfab.com/3d-models/ludwig-van-beethoven-9b56c0a6a1444cd89f8933a11f2d55b6",
      "title": "Ludwig van Beethoven"
    },
    "generator": "Sketchfab-7.80.0",
    "version": "2.0"
  },
  "bufferViews": [
    {
      "buffer": 0,
      "byteLength": 6203856,
      "byteOffset": 0,
      "name": "floatBufferViews",
      "target": 34963
    },
    {
      "buffer": 0,
      "byteLength": 2701056,
      "byteOffset": 6203856,
      "byteStride": 8,
      "name": "floatBufferViews",
      "target": 34962
    },
    {
      "buffer": 0,
      "byteLength": 8103168,
      "byteOffset": 8904912,
      "byteStride": 12,
      "name": "floatBufferViews",
      "target": 34962
    }
  ],
  "buffers": [
    {
      "byteLength": 17008080,
      "uri": "scene.bin"
    }
  ],
  "images": [
    {
      "uri": "textures/BeethovenNEU_O_Material_u1_v1_baseColor.png"
    },
    {
      "uri": "textures/GeneratedMat1_baseColor.png"
    }
  ],
  "materials": [
    {
      "doubleSided": true,
      "emissiveFactor": [
        0,
        0,
        0
      ],
      "name": "BeethovenNEU_O_Material_u1_v1",
      "pbrMetallicRoughness": {
        "baseColorFactor": [
          1,
          1,
          1,
          1
        ],
        "baseColorTexture": {
          "index": 0,
          "texCoord": 0
        },
        "metallicFactor": 0.1143125057220459,
        "roughnessFactor": 0.71068749427795408
      }
    },
    {
      "doubleSided": true,
      "emissiveFactor": [
        0,
        0,
        0
      ],
      "name": "GeneratedMat1",
      "pbrMetallicRoughness": {
        "baseColorFactor": [
          1,
          1,
          1,
          1
        ],
        "baseColorTexture": {
          "index": 1,
          "texCoord": 0
        },
        "metallicFactor": 0.22056250572204589,
        "roughnessFactor": 0.7981874942779541
      }
    }
  ],
  "meshes": [
    {
      "primitives": [
        {
          "attributes": {
            "NORMAL": 1,
            "POSITION": 0,
            "TEXCOORD_0": 2
          },
          "indices": 3,
          "material": 0,
          "mode": 4
        }
      ]
    },
    {
      "primitives": [
        {
          "attributes": {
            "NORMAL": 5,
            "POSITION": 4,
            "TEXCOORD_0": 6
          },
          "indices": 7,
          "material": 0,
          "mode": 4
        }
      ]
    },
    {
      "primitives": [
        {
          "attributes": {
            "NORMAL": 9,
            "POSITION": 8,
            "TEXCOORD_0": 10
          },
          "indices": 11,
          "material": 0,
          "mode": 4
        }
      ]
    },
    {
      "primitives": [
        {
          "attributes": {
            "NORMAL": 13,
            "POSITION": 12,
            "TEXCOORD_0": 14
          },
          "indices": 15,
          "material": 0,
          "mode": 4
        }
      ]
    },
    {
      "primitives": [
        {
          "attributes": {
            "NORMAL": 17,
            "POSITION": 16,
            "TEXCOORD_0": 18
          },
          "indices": 19,
          "material": 0,
          "mode": 4
        }
      ]
    },
    {
      "primitives": [
        {
          "attributes": {
            "NORMAL": 21,
            "POSITION": 20,
            "TEXCOORD_0": 22
          },
          "indices": 23,
          "material": 0,
          "mode": 4
        }
      ]
    },
    {
      "primitives": [
        {
          "attributes": {
            "NORMAL": 25,
            "POSITION": 24,
            "TEXCOORD_0": 26
          },
          "indices": 27,
          "material": 1,
          "mode": 4
        }
      ]
    }
  ],
  "nodes": [
    {
      "children": [
        1
      ],
      "name": "RootNode (gltf orientation matrix)",
      "rotation": [
        -0.70710678118654746,
        -0,
        -0,
        0.70710678118654757
      ]
    },
    {
      "children": [
        2
      ],
      "matrix": [
        0.9986845850944519,
        0.050935368984937668,
        0.0058945333585143089,
        0,
        0.0059466343373060226,
        -0.00087139947572723031,
        -0.99998193979263306,
        0,
        -0.050929311662912369,
        0.99870157241821289,
        -0.0011731472332030535,
        0,
        0.10159742832183838,
        -15.16825008392334,
        -15.491330146789551,
        1
      ],
      "name": "RootNode (model correction matrix)"
    },
    {
      "children": [
        3,
        4,
        5,
        6,
        7,
        8,
        9
      ],
      "name": "Beethoven_C.obj.cleaner.materialmerger.gles"
    },
    {
      "mesh": 0,
      "name": ""
    },
    {
      "mesh": 1,
      "name": ""
    },
    {
      "mesh": 2,
      "name": ""
    },
    {
      "mesh": 3,
      "name": ""
    },
    {
      "mesh": 4,
      "name": ""
    },
    {
      "mesh": 5,
      "name": ""
    },
    {
      "mesh": 6,
      "name": ""
    }
  ],
  "samplers": [
    {
      "magFilter": 9729,
      "minFilter": 9987,
      "wrapS": 10497,
      "wrapT": 10497
    }
  ],
  "scene": 0,
  "scenes": [
    {
      "name": "OSG_Scene",
      "nodes": [
        0
      ]
    }
  ],
  "textures": [
    {
      "sampler": 0,
      "source": 0
    },
    {
      "sampler": 0,
      "source": 1
    }
  ]
}

